<svg width="286" height="70" viewBox="0 0 286 70" fill="none" xmlns="http://www.w3.org/2000/svg" role="img" aria-labelledby="title desc">
  <title id="title">co.medical Logo</title>
  <desc id="desc">co.medical – A Cydl Brand</desc>
  <defs>
    <linearGradient id="g1" x1="98" y1="15" x2="145" y2="55" gradientUnits="userSpaceOnUse">
      <stop stop-color="#FF5E00"/>
      <stop offset="1" stop-color="#FFA72B"/>
    </linearGradient>
    <linearGradient id="g2" x1="100" y1="35" x2="145" y2="35" gradientUnits="userSpaceOnUse">
      <stop stop-color="#FF8B1F"/>
      <stop offset="1" stop-color="#FF4B00"/>
    </linearGradient>
  </defs>

  <text x="4" y="46" font-family="Barlow, Arial, sans-serif" font-size="50" font-weight="500" fill="#101634">co</text>

  <path d="M108 16C116.5 16 124.5 20 130 26.3C124.5 32.5 116.5 36.5 108 36.5C99.4 36.5 91.4 32.5 86 26.3C91.4 20 99.4 16 108 16Z" fill="url(#g1)"/>
  <path d="M108 53.5C99.4 53.5 91.4 49.5 86 43.2C91.4 37 99.4 33 108 33C116.5 33 124.5 37 130 43.2C124.5 49.5 116.5 53.5 108 53.5Z" fill="url(#g2)"/>
  <circle cx="130" cy="34.8" r="15.6" fill="url(#g1)"/>

  <text x="150" y="45" font-family="Barlow, Arial, sans-serif" font-size="52" font-weight="400" letter-spacing="0.5" fill="#101634">medical</text>
  <text x="256" y="15" font-family="Barlow, Arial, sans-serif" font-size="11" font-weight="700" fill="#101634">®</text>
  <text x="170" y="61" font-family="Barlow, Arial, sans-serif" font-size="15" font-weight="500" fill="#101634">A Cydl Brand</text>
</svg>
